<?xml version="1.0" encoding="iso-8859-1"?>
<!-- Generator: Adobe Illustrator 19.0.0, SVG Export Plug-In . SVG Version: 6.00 Build 0)  -->
<svg version="1.1" id="Layer_1" xmlns="http://www.w3.org/2000/svg" xmlns:xlink="http://www.w3.org/1999/xlink" x="0px" y="0px"
	 viewBox="0 0 512 512" style="enable-background:new 0 0 512 512;" xml:space="preserve">
<path style="fill:#50C871;" d="M138.658,176.881h292.803c10.7,0,19.375,8.675,19.375,19.376v222.826
	c0,10.702-8.675,19.376-19.375,19.376H80.538c-10.702,0-19.377-8.675-19.377-19.376V196.257c0-10.701,8.675-19.376,19.377-19.376
	h30.968"/>
<g>
	<circle style="fill:#FFFFFF;" cx="165.574" cy="268.381" r="23.682"/>
	<circle style="fill:#FFFFFF;" cx="346.42" cy="268.381" r="23.682"/>
</g>
<g>
	<circle style="fill:#FFFFFF;" cx="255.997" cy="62.778" r="38.753"/>
	<path style="fill:#50C871;" d="M272.256,487.976h-71.695c-10.701,0-19.377-8.676-19.377-19.376v-10.764
		c0-10.701,8.676-19.376,19.377-19.376h110.874c10.702,0,19.377,8.675,19.377,19.376V468.6c0,10.701-8.674,19.376-19.377,19.376
		h-12.024"/>
	<path style="fill:#50C871;" d="M327.045,142.435H184.954c-10.703,0-19.376,8.674-19.376,19.376v15.069h180.844v-15.069
		C346.421,151.109,337.746,142.435,327.045,142.435z"/>
	<path style="fill:#FFFFFF;" d="M61.164,244.707c-29.308,0.168-53.018,27.807-53.018,61.887s23.71,61.719,53.018,61.888V244.707z"/>
	<path style="fill:#FFFFFF;" d="M450.836,244.707c29.305,0.168,53.018,27.808,53.018,61.888c0,34.081-23.713,61.719-53.018,61.888
		V244.707z"/>
</g>
<path style="fill:#FFFFFF;" d="M309.822,368.49c0,10.701-8.674,19.376-19.377,19.376h-68.893c-10.702,0-19.377-8.675-19.377-19.376
	v-16.147c0-10.701,8.675-19.376,19.377-19.376h68.893c10.702,0,19.377,8.675,19.377,19.376V368.49z"/>
<g style="opacity:0.2;">
	<path style="fill:#231F20;" d="M86.854,419.083V196.257c0-10.701,8.674-19.376,19.377-19.376H80.538
		c-10.702,0-19.377,8.675-19.377,19.376v222.826c0,10.702,8.675,19.376,19.377,19.376h25.693
		C95.528,438.46,86.854,429.785,86.854,419.083z"/>
</g>
<g style="opacity:0.2;">
	<path style="fill:#231F20;" d="M167.588,268.38c0-8.342,4.317-15.671,10.836-19.89c-3.701-2.396-8.109-3.792-12.845-3.792
		c-13.081,0-23.684,10.603-23.684,23.682c0,13.08,10.603,23.682,23.684,23.682c4.736,0,9.144-1.397,12.845-3.792
		C171.906,284.052,167.588,276.722,167.588,268.38z"/>
</g>
<g style="opacity:0.2;">
	<path style="fill:#231F20;" d="M348.432,268.38c0-8.342,4.318-15.671,10.837-19.891c-3.702-2.396-8.11-3.792-12.846-3.792
		c-13.081,0-23.683,10.603-23.683,23.682c0,13.08,10.602,23.682,23.683,23.682c4.736,0,9.144-1.397,12.846-3.792
		C352.749,284.052,348.432,276.722,348.432,268.38z"/>
</g>
<g style="opacity:0.2;">
	<path style="fill:#231F20;" d="M242.941,62.778c0-16.898,10.818-31.262,25.905-36.562c-4.02-1.413-8.342-2.19-12.845-2.19
		c-21.404,0-38.753,17.349-38.753,38.752c0,21.402,17.349,38.752,38.753,38.752c4.504,0,8.825-0.777,12.845-2.19
		C253.759,94.04,242.941,79.675,242.941,62.778z"/>
</g>
<g style="opacity:0.2;">
	<path style="fill:#231F20;" d="M206.877,468.6v-10.764c0-10.701,8.676-19.376,19.377-19.376h-25.692
		c-10.701,0-19.377,8.675-19.377,19.376V468.6c0,10.701,8.676,19.376,19.377,19.376h25.692
		C215.553,487.976,206.877,479.3,206.877,468.6z"/>
</g>
<g style="opacity:0.2;">
	<path style="fill:#231F20;" d="M210.647,142.435h-25.692c-10.703,0-19.376,8.674-19.376,19.376v15.069h25.693v-15.069
		C191.272,151.109,199.944,142.435,210.647,142.435z"/>
</g>
<g style="opacity:0.2;">
	<path style="fill:#231F20;" d="M33.839,306.594c0-25.351,10.543-47.831,26.811-61.87c-29.069,0.488-52.504,27.99-52.504,61.87
		s23.435,61.382,52.504,61.87C44.383,354.426,33.839,331.945,33.839,306.594z"/>
</g>
<g style="opacity:0.2;">
	<path style="fill:#231F20;" d="M227.868,368.49v-16.147c0-10.701,8.676-19.376,19.377-19.376h-25.692
		c-10.702,0-19.377,8.675-19.377,19.376v16.147c0,10.701,8.675,19.376,19.377,19.376h25.692
		C236.544,387.866,227.868,379.191,227.868,368.49z"/>
</g>
<g>
	<path style="fill:#231F20;" d="M165.578,236.552c-17.55,0-31.83,14.279-31.83,31.828c0,17.549,14.279,31.828,31.83,31.828
		c17.549,0,31.827-14.278,31.827-31.828S183.128,236.552,165.578,236.552z M165.578,283.915c-8.568,0-15.538-6.97-15.538-15.535
		c0-8.567,6.97-15.535,15.538-15.535c8.565,0,15.534,6.97,15.534,15.535C181.112,276.946,174.143,283.915,165.578,283.915z"/>
	<path style="fill:#231F20;" d="M346.421,300.207c17.549,0,31.828-14.278,31.828-31.828s-14.279-31.828-31.828-31.828
		c-17.55,0-31.829,14.279-31.829,31.828S328.871,300.207,346.421,300.207z M346.421,252.844c8.567,0,15.535,6.97,15.535,15.535
		s-6.969,15.535-15.535,15.535c-8.567,0-15.536-6.97-15.536-15.535C330.886,259.814,337.856,252.844,346.421,252.844z"/>
	<path style="fill:#231F20;" d="M512,306.594c0-35.29-23.134-64.65-53.018-69.357v-40.98c0-15.176-12.345-27.522-27.521-27.522
		h-76.894v-6.924c0-15.176-12.346-27.522-27.523-27.522h-62.898v-25.335c21.988-3.87,38.753-23.095,38.753-46.176
		c0-25.86-21.039-46.898-46.899-46.898S209.1,36.919,209.1,62.778c0,23.081,16.765,42.306,38.753,46.176v25.335h-62.9
		c-15.176,0-27.522,12.346-27.522,27.522v6.924h-18.773c-4.5,0-8.146,3.647-8.146,8.146c0,4.499,3.646,8.146,8.146,8.146h292.803
		c6.191,0,11.229,5.038,11.229,11.23v48.448v123.776v50.601c0,6.192-5.038,11.23-11.229,11.23H80.537
		c-6.192,0-11.231-5.038-11.231-11.23v-50.539c0-0.022,0.003-0.041,0.003-0.063V244.707c0-0.022-0.003-0.041-0.003-0.063v-48.386
		c0-6.192,5.039-11.23,11.231-11.23h30.968c4.5,0,8.146-3.647,8.146-8.146c0-4.499-3.646-8.146-8.146-8.146H80.537
		c-15.177,0-27.523,12.346-27.523,27.522v40.98C23.133,241.946,0,271.305,0,306.594s23.133,64.648,53.014,69.356v43.133
		c0,15.176,12.346,27.522,27.523,27.522h94.905c-1.54,3.432-2.405,7.231-2.405,11.23v10.764c0,15.176,12.346,27.522,27.523,27.522
		h71.695c4.5,0,8.146-3.647,8.146-8.146s-3.646-8.146-8.146-8.146h-71.695c-6.192,0-11.231-5.038-11.231-11.23v-10.764
		c0-6.192,5.039-11.23,11.231-11.23h110.873c6.192,0,11.231,5.038,11.231,11.23v10.764c0,6.192-5.039,11.23-11.231,11.23h-12.024
		c-4.5,0-8.146,3.647-8.146,8.146s3.646,8.146,8.146,8.146h12.024c15.177,0,27.523-12.346,27.523-27.522v-10.764
		c0-3.999-0.865-7.799-2.405-11.23h94.909c15.176,0,27.521-12.346,27.521-27.522V375.95C488.865,371.244,512,341.885,512,306.594z
		 M225.394,62.778c0-16.877,13.73-30.606,30.607-30.606s30.607,13.73,30.607,30.606s-13.73,30.606-30.607,30.606
		C239.123,93.384,225.394,79.655,225.394,62.778z M173.724,161.811c0-6.192,5.038-11.23,11.23-11.23h71.025
		c0.008,0,0.014,0.001,0.021,0.001s0.014-0.001,0.021-0.001h71.024c6.192,0,11.231,5.038,11.231,11.23v6.924H173.724V161.811z
		 M16.292,306.594c0-26.159,15.853-48.084,36.722-52.803v105.605C32.145,354.678,16.292,332.754,16.292,306.594z M458.982,359.398
		V253.791c20.871,4.717,36.725,26.642,36.725,52.803C495.708,332.754,479.853,354.68,458.982,359.398z"/>
	<path style="fill:#231F20;" d="M290.445,324.821h-68.893c-15.177,0-27.523,12.346-27.523,27.522v16.147
		c0,15.176,12.346,27.522,27.523,27.522h68.893c15.177,0,27.523-12.346,27.523-27.522v-16.147
		C317.968,337.167,305.622,324.821,290.445,324.821z M301.676,368.49c0,6.192-5.039,11.23-11.231,11.23h-68.893
		c-6.192,0-11.231-5.038-11.231-11.23v-16.147c0-6.192,5.039-11.23,11.231-11.23h68.893c6.192,0,11.231,5.038,11.231,11.23V368.49z"
		/>
</g>
<g>
</g>
<g>
</g>
<g>
</g>
<g>
</g>
<g>
</g>
<g>
</g>
<g>
</g>
<g>
</g>
<g>
</g>
<g>
</g>
<g>
</g>
<g>
</g>
<g>
</g>
<g>
</g>
<g>
</g>
</svg>
